<svg version="1.1" id="Layer_1" xmlns="http://www.w3.org/2000/svg" xmlns:xlink="http://www.w3.org/1999/xlink" x="0px" y="0px"
	 width="100%" viewBox="0 0 225 225" enable-background="new 0 0 225 225" xml:space="preserve">

<path fill="#64ffda" opacity="1.000000" stroke="none" 
	d="
M118.798294,6.034736 
	C169.813004,9.314723 204.793381,44.184765 216.450668,82.336418 
	C235.023117,143.119904 195.369766,208.536133 133.029892,219.141083 
	C74.587196,229.083069 21.576628,193.743759 8.279833,135.976898 
	C-4.520484,80.366943 32.155586,21.809942 88.176605,9.181499 
	C97.966759,6.974569 108.262245,7.009312 118.798294,6.034736 
M84.499954,161.126480 
	C113.665367,161.126328 142.830795,161.137955 171.996170,161.115814 
	C177.633865,161.111542 179.192871,159.798126 179.203827,154.624741 
	C179.262039,127.126076 179.222580,99.627197 179.238770,72.128418 
	C179.241348,67.740654 177.107574,65.844521 172.749329,65.849304 
	C133.251099,65.892693 93.752777,65.892761 54.254551,65.849190 
	C49.898140,65.844383 47.758854,67.735130 47.761387,72.124535 
	C47.777256,99.623322 47.788776,127.122154 47.749321,154.620895 
	C47.742664,159.260666 49.903305,161.217880 54.501656,161.161606 
	C64.166451,161.043350 73.833702,161.126190 84.499954,161.126480 
z"/>
<path fill="#0a192f" opacity="1.000000" stroke="none" 
	d="
M83.999954,161.126480 
	C73.833702,161.126190 64.166451,161.043350 54.501656,161.161606 
	C49.903305,161.217880 47.742664,159.260666 47.749321,154.620895 
	C47.788776,127.122154 47.777256,99.623322 47.761387,72.124535 
	C47.758854,67.735130 49.898140,65.844383 54.254551,65.849190 
	C93.752777,65.892761 133.251099,65.892693 172.749329,65.849304 
	C177.107574,65.844521 179.241348,67.740654 179.238770,72.128418 
	C179.222580,99.627197 179.262039,127.126076 179.203827,154.624741 
	C179.192871,159.798126 177.633865,161.111542 171.996170,161.115814 
	C142.830795,161.137955 113.665367,161.126328 83.999954,161.126480 
M87.500854,78.873947 
	C81.287369,78.873947 75.073883,78.873947 67.688263,78.873947 
	C83.615601,92.777527 98.542191,105.807510 113.499596,118.864395 
	C128.680939,105.589722 143.464218,92.663116 159.233963,78.873947 
	C134.692230,78.873947 111.596352,78.873947 87.500854,78.873947 
M131.499985,150.072617 
	C140.182831,150.072617 148.865692,150.072617 158.464081,150.072617 
	C147.323273,140.147354 137.055710,131.000061 126.707184,121.780624 
	C123.648369,124.444038 120.744446,126.902321 117.921288,129.450104 
	C114.963371,132.119522 112.088425,132.199738 109.098709,129.515747 
	C106.270966,126.977158 103.380981,124.507904 100.428650,121.929802 
	C90.165001,131.097824 79.994751,140.182419 68.922623,150.072617 
	C90.349251,150.072617 110.424614,150.072617 131.499985,150.072617 
M58.632313,112.499832 
	C58.632313,122.884285 58.632313,133.268738 58.632313,144.648682 
	C70.326065,134.217438 81.241669,124.480331 92.203918,114.701622 
	C81.037125,104.955833 70.218330,95.513756 58.632298,85.402084 
	C58.632298,94.727730 58.632298,103.113777 58.632313,112.499832 
M150.464462,100.954422 
	C145.332291,105.450417 140.200104,109.946411 134.927353,114.565559 
	C145.813400,124.252182 156.649185,133.894058 167.961029,143.959564 
	C167.961029,124.072319 167.961029,105.138680 167.961029,85.756454 
	C161.991989,90.921303 156.481064,95.689751 150.464462,100.954422 
z"/>
<path fill="#64ffda" opacity="1.000000" stroke="none" 
	d="
M88.000664,78.873947 
	C111.596352,78.873947 134.692230,78.873947 159.233963,78.873947 
	C143.464218,92.663116 128.680939,105.589722 113.499596,118.864395 
	C98.542191,105.807510 83.615601,92.777527 67.688263,78.873947 
	C75.073883,78.873947 81.287369,78.873947 88.000664,78.873947 
z"/>
<path fill="#64ffda" opacity="1.000000" stroke="none" 
	d="
M130.999969,150.072617 
	C110.424614,150.072617 90.349251,150.072617 68.922623,150.072617 
	C79.994751,140.182419 90.165001,131.097824 100.428650,121.929802 
	C103.380981,124.507904 106.270966,126.977158 109.098709,129.515747 
	C112.088425,132.199738 114.963371,132.119522 117.921288,129.450104 
	C120.744446,126.902321 123.648369,124.444038 126.707184,121.780624 
	C137.055710,131.000061 147.323273,140.147354 158.464081,150.072617 
	C148.865692,150.072617 140.182831,150.072617 130.999969,150.072617 
z"/>
<path fill="#64ffda" opacity="1.000000" stroke="none" 
	d="
M58.632305,111.999832 
	C58.632298,103.113777 58.632298,94.727730 58.632298,85.402084 
	C70.218330,95.513756 81.037125,104.955833 92.203918,114.701622 
	C81.241669,124.480331 70.326065,134.217438 58.632313,144.648682 
	C58.632313,133.268738 58.632313,122.884285 58.632305,111.999832 
z"/>
<path fill="#64ffda" opacity="1.000000" stroke="none" 
	d="
M150.717316,100.706314 
	C156.481064,95.689751 161.991989,90.921303 167.961029,85.756454 
	C167.961029,105.138680 167.961029,124.072319 167.961029,143.959564 
	C156.649185,133.894058 145.813400,124.252182 134.927353,114.565559 
	C140.200104,109.946411 145.332291,105.450417 150.717316,100.706314 
z"/>
</svg>