<svg version="1.1" id="Layer_1" xmlns="http://www.w3.org/2000/svg" xmlns:xlink="http://www.w3.org/1999/xlink" x="0px" y="0px"
	 width="100%" viewBox="0 0 500 500" enable-background="new 0 0 500 500" xml:space="preserve">
<path fill="#64ffda" opacity="1.000000" stroke="none" 
	d="
M282.901642,424.836975 
	C273.795227,430.084045 264.924438,435.015381 256.269836,440.300720 
	C252.401367,442.663208 249.200943,442.731476 245.213562,440.414368 
	C192.880142,410.003479 140.479019,379.708923 88.040527,349.479523 
	C85.533783,348.034424 84.687263,346.463501 84.690964,343.619751 
	C84.771255,281.969177 84.768845,220.318451 84.697899,158.667831 
	C84.694672,155.863800 85.451927,154.247238 88.006897,152.774185 
	C140.732147,122.375877 193.405075,91.886665 246.036789,61.326630 
	C249.324921,59.417400 252.016937,59.445374 255.274963,61.336052 
	C308.057770,91.966698 360.875702,122.536873 413.742615,153.022125 
	C416.291290,154.491806 417.030121,156.138260 417.026733,158.944794 
	C416.952911,220.262161 416.943146,281.579681 417.046692,342.896942 
	C417.052185,346.157867 416.077118,347.861023 413.217224,349.506989 
	C369.837280,374.474121 326.541107,399.586792 282.901642,424.836975 
M95.915474,284.499969 
	C95.915474,301.664124 96.028084,318.829620 95.821747,335.991302 
	C95.779800,339.479492 96.992340,341.251770 99.903069,342.932709 
	C148.869934,371.211304 197.791748,399.568146 246.651810,428.030823 
	C249.633057,429.767456 251.752625,429.684418 254.678070,427.982025 
	C303.550507,399.542419 352.475861,371.193512 401.450439,342.930176 
	C404.424225,341.214050 405.457855,339.296173 405.451141,335.869476 
	C405.340454,279.378113 405.342560,222.886383 405.446777,166.394989 
	C405.453064,162.992157 404.461761,161.074692 401.456390,159.345734 
	C352.442627,131.148636 303.483185,102.856705 254.586868,74.456421 
	C251.576370,72.707848 249.502823,72.840973 246.557053,74.551521 
	C197.802872,102.862022 148.990662,131.072845 100.117378,159.177185 
	C96.992264,160.974243 95.805656,162.840469 95.820152,166.517715 
	C95.973892,205.511307 95.915474,244.505737 95.915474,284.499969 
z"/>
<path fill="#0a192f" opacity="1.000000" stroke="none" 
	d="
M95.915474,283.999939 
	C95.915474,244.505737 95.973892,205.511307 95.820152,166.517715 
	C95.805656,162.840469 96.992264,160.974243 100.117378,159.177185 
	C148.990662,131.072845 197.802872,102.862022 246.557053,74.551521 
	C249.502823,72.840973 251.576370,72.707848 254.586868,74.456421 
	C303.483185,102.856705 352.442627,131.148636 401.456390,159.345734 
	C404.461761,161.074692 405.453064,162.992157 405.446777,166.394989 
	C405.342560,222.886383 405.340454,279.378113 405.451141,335.869476 
	C405.457855,339.296173 404.424225,341.214050 401.450439,342.930176 
	C352.475861,371.193512 303.550507,399.542419 254.678070,427.982025 
	C251.752625,429.684418 249.633057,429.767456 246.651810,428.030823 
	C197.791748,399.568146 148.869934,371.211304 99.903069,342.932709 
	C96.992340,341.251770 95.779800,339.479492 95.821747,335.991302 
	C96.028084,318.829620 95.915474,301.664124 95.915474,283.999939 
M274.018616,310.844177 
	C285.010223,318.173096 297.172180,319.670380 309.919800,317.857513 
	C328.046539,315.279633 339.473663,304.371063 342.609131,286.456909 
	C343.350342,282.221985 343.378510,277.826874 343.387115,273.504761 
	C343.448853,242.507507 343.420776,211.510086 343.421265,180.512711 
	C343.421295,178.890701 343.421265,177.268677 343.421265,175.620667 
	C332.448730,175.620667 322.069489,175.620667 311.312866,175.620667 
	C311.312866,177.973190 311.314697,179.947266 311.312622,181.921341 
	C311.281281,211.418228 311.524323,240.919022 311.106262,270.410431 
	C310.883820,286.099335 298.035522,292.573822 284.650299,284.313568 
	C282.037842,282.701355 279.637665,280.745148 276.841705,278.733276 
	C273.437866,287.505096 270.191376,295.871429 266.712006,304.837891 
	C253.419647,288.867676 240.708694,273.595978 227.876282,258.178345 
	C228.860214,257.586670 229.248123,257.284943 229.685486,257.100311 
	C250.007889,248.522308 259.356354,231.207367 255.811920,208.689941 
	C252.907913,190.241089 238.724182,177.263489 217.790176,176.028412 
	C199.028183,174.921478 180.164810,175.530960 161.345993,175.408447 
	C161.074554,175.406662 160.800980,175.732346 160.431976,175.966370 
	C160.431976,222.486588 160.431976,269.059357 160.431976,315.708374 
	C171.124054,315.708374 181.530533,315.708374 192.418442,315.708374 
	C192.418442,297.567169 192.418442,279.716339 192.418442,260.886963 
	C194.032181,262.839661 194.995819,263.941772 195.890121,265.097534 
	C208.223877,281.036713 220.480591,297.036652 232.976517,312.847534 
	C234.260666,314.472351 236.937805,315.807526 239.007401,315.864380 
	C249.831635,316.161835 260.668427,316.014221 271.500793,315.988037 
	C272.712646,315.985107 273.923981,315.771484 275.500000,315.620697 
	C274.254913,313.947754 273.365753,312.753082 272.917725,311.094055 
	C273.064331,310.938843 273.210907,310.783630 274.018616,310.844177 
z"/>
<path fill="#64ffda" opacity="1.000000" stroke="none" 
	d="
M272.476624,311.558411 
	C273.365753,312.753082 274.254913,313.947754 275.500000,315.620697 
	C273.923981,315.771484 272.712646,315.985107 271.500793,315.988037 
	C260.668427,316.014221 249.831635,316.161835 239.007401,315.864380 
	C236.937805,315.807526 234.260666,314.472351 232.976517,312.847534 
	C220.480591,297.036652 208.223877,281.036713 195.890121,265.097534 
	C194.995819,263.941772 194.032181,262.839661 192.418442,260.886963 
	C192.418442,279.716339 192.418442,297.567169 192.418442,315.708374 
	C181.530533,315.708374 171.124054,315.708374 160.431976,315.708374 
	C160.431976,269.059357 160.431976,222.486588 160.431976,175.966370 
	C160.800980,175.732346 161.074554,175.406662 161.345993,175.408447 
	C180.164810,175.530960 199.028183,174.921478 217.790176,176.028412 
	C238.724182,177.263489 252.907913,190.241089 255.811920,208.689941 
	C259.356354,231.207367 250.007889,248.522308 229.685486,257.100311 
	C229.248123,257.284943 228.860214,257.586670 227.876282,258.178345 
	C240.708694,273.595978 253.419647,288.867676 266.712006,304.837891 
	C270.191376,295.871429 273.437866,287.505096 276.841705,278.733276 
	C279.637665,280.745148 282.037842,282.701355 284.650299,284.313568 
	C298.035522,292.573822 310.883820,286.099335 311.106262,270.410431 
	C311.524323,240.919022 311.281281,211.418228 311.312622,181.921341 
	C311.314697,179.947266 311.312866,177.973190 311.312866,175.620667 
	C322.069489,175.620667 332.448730,175.620667 343.421265,175.620667 
	C343.421265,177.268677 343.421295,178.890701 343.421265,180.512711 
	C343.420776,211.510086 343.448853,242.507507 343.387115,273.504761 
	C343.378510,277.826874 343.350342,282.221985 342.609131,286.456909 
	C339.473663,304.371063 328.046539,315.279633 309.919800,317.857513 
	C297.172180,319.670380 285.010223,318.173096 273.492920,310.492188 
	C272.392883,310.140198 271.818542,310.140198 270.660431,310.140198 
	C271.564148,310.845886 272.020386,311.202148 272.476624,311.558411 
M220.884735,228.137863 
	C223.675110,220.481110 224.061081,212.698959 218.097397,206.650482 
	C210.983200,199.435135 201.467545,200.971863 192.502747,201.135727 
	C192.502747,213.617401 192.502747,225.509491 192.502747,238.103088 
	C197.947525,237.699554 203.069168,237.575882 208.110779,236.875900 
	C213.381714,236.144073 218.006821,233.989578 220.884735,228.137863 
z"/>
<path fill="#0a192f" opacity="1.000000" stroke="none" 
	d="
M220.707077,228.477203 
	C218.006821,233.989578 213.381714,236.144073 208.110779,236.875900 
	C203.069168,237.575882 197.947525,237.699554 192.502747,238.103088 
	C192.502747,225.509491 192.502747,213.617401 192.502747,201.135727 
	C201.467545,200.971863 210.983200,199.435135 218.097397,206.650482 
	C224.061081,212.698959 223.675110,220.481110 220.707077,228.477203 
z"/>
<!-- <path fill="#164955" opacity="1.000000" stroke="none" 
	d="
M272.697174,311.326233 
	C272.020386,311.202148 271.564148,310.845886 270.660431,310.140198 
	C271.818542,310.140198 272.392883,310.140198 273.162323,310.384308 
	C273.210907,310.783630 273.064331,310.938843 272.697174,311.326233 
z"/> -->
</svg>