<svg version="1.1" id="Layer_1" xmlns="http://www.w3.org/2000/svg" xmlns:xlink="http://www.w3.org/1999/xlink" x="0px" y="0px"
	 width="100%" viewBox="0 0 197 415" enable-background="new 0 0 197 415" xml:space="preserve">
<path fill="#64ffda" opacity="1.000000" stroke="none" 
	d="
M8.524641,407.861816 
	C8.138313,407.427338 7.984159,407.181396 7.525740,406.947754 
	C3.295944,401.081482 1.944175,394.603058 1.947601,387.584015 
	C2.006150,267.636566 1.986876,147.689087 1.993420,27.741602 
	C1.994106,15.148685 6.524291,7.252953 16.136881,3.854956 
	C19.356089,2.716984 22.929005,2.074476 26.342237,2.066560 
	C74.820747,1.954116 123.299637,1.958897 171.778366,2.007672 
	C187.253601,2.023241 195.999146,10.755937 196.001251,26.082548 
	C196.017929,147.529358 196.055908,268.976288 195.843414,390.422699 
	C195.834854,395.316681 193.385483,400.206390 191.974976,405.433624 
	C190.102676,407.394714 188.328735,409.020264 186.283325,410.829529 
	C179.698135,412.067017 173.389984,413.994629 167.069839,414.034760 
	C121.334106,414.325348 75.595955,414.234558 29.402950,414.391418 
	C21.550837,414.487396 14.434457,413.593109 8.524641,407.861816 
M151.902420,9.713821 
	C150.794556,15.908846 146.910583,19.404139 140.068100,20.801979 
	C113.770844,20.804810 87.473572,20.824724 61.176342,20.800991 
	C52.248142,20.792933 48.385334,17.498484 46.555195,9.196796 
	C46.262058,7.867115 44.198296,6.065053 42.857277,5.979295 
	C37.221432,5.618883 31.521334,6.187940 25.896042,5.753162 
	C13.750422,4.814429 3.847920,16.303421 5.906982,27.923615 
	C5.897737,87.957184 5.887493,147.990753 5.887912,208.024323 
	C5.887919,209.015976 6.017854,210.007629 5.904009,211.821472 
	C5.975316,213.216980 6.046622,214.612473 5.941124,216.929596 
	C5.921650,275.257599 5.895238,333.585571 5.915560,391.913574 
	C5.916182,393.698914 6.144420,395.570404 6.706594,397.254883 
	C9.708254,406.248932 16.498085,410.706573 27.133312,410.710602 
	C74.629166,410.728516 122.125023,410.721222 169.620880,410.717621 
	C185.491669,410.716431 192.766754,403.419495 192.768539,387.492188 
	C192.774643,333.330261 192.777451,279.168304 192.763290,225.006363 
	C192.762512,222.013657 192.596954,219.020966 192.733276,215.209717 
	C192.669006,213.803238 192.604721,212.396774 192.742554,210.074570 
	C192.750748,149.877289 192.760254,89.679993 192.757248,29.482708 
	C192.757187,28.326258 192.609299,27.169817 192.734329,25.256744 
	C191.417053,12.620650 184.144058,5.541919 172.081131,5.852649 
	C166.601578,5.843716 161.121918,5.851023 155.642502,5.817834 
	C153.458008,5.804603 151.484619,5.935305 151.902420,9.713821 
M86.784302,10.002975 
	C85.266624,10.166877 83.748940,10.330777 81.938171,10.526331 
	C83.884933,14.005195 92.601227,15.266264 102.480705,13.900136 
	C103.774055,13.721293 104.919426,12.472362 106.133339,11.719063 
	C105.920601,11.147006 105.707863,10.574948 105.495125,10.002892 
	C99.569908,10.002892 93.644699,10.002892 86.784302,10.002975 
M112.209648,9.557659 
	C110.305069,11.680611 110.917595,13.308698 113.493484,13.776406 
	C114.492393,13.957779 115.747208,12.729756 116.885445,12.143781 
	C115.557167,11.165938 114.228889,10.188095 112.209648,9.557659 
z"/>
</svg>